<svg width="18" height="18" viewBox="0 0 18 18" fill="none" xmlns="http://www.w3.org/2000/svg">
<g id="Vector 11" filter="url(#filter0_d_413_11267)">
<path d="M5.3413 4.76948L3.6892 5.87235C4.45769 8.69557 5.20944 10.1293 7.48291 12.2445L9.01263 11.448C9.30197 11.3166 9.46746 11.3745 9.74689 11.7543L11.1542 14.0826C11.2103 14.4702 11.1228 14.6357 10.8483 14.8791L8.21717 16.2271C2.91849 12.7222 1.2703 9.68771 0.629761 3.05391L3.19969 1.33834C3.60542 1.10006 3.77819 1.25437 4.05633 1.70596L5.46368 4.09551C5.53336 4.39749 5.50642 4.54502 5.3413 4.76948Z" fill="white"/>
<path d="M6.32032 4.76948C6.4749 4.40241 6.4535 4.15225 6.32032 3.66661H15.9882L10.2364 7.58792L6.32032 4.76948Z" fill="white"/>
<path d="M7.48291 11.0191C6.03298 9.35829 5.44521 8.31197 4.66822 6.30124L5.892 5.566L10.0528 8.50698H10.5423L16.7836 4.09551V11.9994C16.7724 12.3881 16.6441 12.5046 16.2941 12.6121H11.5214L10.5423 11.0191C9.90808 10.2978 9.47943 10.1123 8.52312 10.4064L7.48291 11.0191Z" fill="white"/>
<path d="M5.3413 4.76948L3.6892 5.87235C4.45769 8.69557 5.20944 10.1293 7.48291 12.2445L9.01263 11.448C9.30197 11.3166 9.46746 11.3745 9.74689 11.7543L11.1542 14.0826C11.2103 14.4702 11.1228 14.6357 10.8483 14.8791L8.21717 16.2271C2.91849 12.7222 1.2703 9.68771 0.629761 3.05391L3.19969 1.33834C3.60542 1.10006 3.77819 1.25437 4.05633 1.70596L5.46368 4.09551C5.53336 4.39749 5.50642 4.54502 5.3413 4.76948Z" stroke="white" stroke-width="0.192308"/>
<path d="M6.32032 4.76948C6.4749 4.40241 6.4535 4.15225 6.32032 3.66661H15.9882L10.2364 7.58792L6.32032 4.76948Z" stroke="white" stroke-width="0.192308"/>
<path d="M7.48291 11.0191C6.03298 9.35829 5.44521 8.31197 4.66822 6.30124L5.892 5.566L10.0528 8.50698H10.5423L16.7836 4.09551V11.9994C16.7724 12.3881 16.6441 12.5046 16.2941 12.6121H11.5214L10.5423 11.0191C9.90808 10.2978 9.47943 10.1123 8.52312 10.4064L7.48291 11.0191Z" stroke="white" stroke-width="0.192308"/>
</g>
<defs>
<filter id="filter0_d_413_11267" x="0.240103" y="0.842398" width="17.505" height="16.3614" filterUnits="userSpaceOnUse" color-interpolation-filters="sRGB">
<feFlood flood-opacity="0" result="BackgroundImageFix"/>
<feColorMatrix in="SourceAlpha" type="matrix" values="0 0 0 0 0 0 0 0 0 0 0 0 0 0 0 0 0 0 127 0" result="hardAlpha"/>
<feOffset dx="0.288462" dy="0.288462"/>
<feGaussianBlur stdDeviation="0.288462"/>
<feComposite in2="hardAlpha" operator="out"/>
<feColorMatrix type="matrix" values="0 0 0 0 0 0 0 0 0 0 0 0 0 0 0 0 0 0 0.2 0"/>
<feBlend mode="normal" in2="BackgroundImageFix" result="effect1_dropShadow_413_11267"/>
<feBlend mode="normal" in="SourceGraphic" in2="effect1_dropShadow_413_11267" result="shape"/>
</filter>
</defs>
</svg>
