<svg width="20" height="20" viewBox="0 0 20 20" fill="none" xmlns="http://www.w3.org/2000/svg">
<g id="fluent:people-team-16-filled">
<path id="Vector" d="M10 2.50244C9.67202 2.50244 9.34726 2.56704 9.04425 2.69255C8.74124 2.81806 8.46592 3.00203 8.234 3.23394C8.00209 3.46586 7.81812 3.74118 7.69261 4.04419C7.5671 4.3472 7.5025 4.67196 7.5025 4.99994C7.5025 5.32792 7.5671 5.65268 7.69261 5.95569C7.81812 6.2587 8.00209 6.53403 8.234 6.76594C8.46592 6.99785 8.74124 7.18182 9.04425 7.30733C9.34726 7.43284 9.67202 7.49744 10 7.49744C10.6624 7.49744 11.2976 7.23431 11.766 6.76594C12.2344 6.29757 12.4975 5.66232 12.4975 4.99994C12.4975 4.33756 12.2344 3.70231 11.766 3.23394C11.2976 2.76557 10.6624 2.50244 10 2.50244ZM15.625 3.74994C15.1277 3.74994 14.6508 3.94749 14.2992 4.29912C13.9475 4.65075 13.75 5.12766 13.75 5.62494C13.75 6.12222 13.9475 6.59914 14.2992 6.95077C14.6508 7.3024 15.1277 7.49994 15.625 7.49994C16.1223 7.49994 16.5992 7.3024 16.9508 6.95077C17.3025 6.59914 17.5 6.12222 17.5 5.62494C17.5 5.12766 17.3025 4.65075 16.9508 4.29912C16.5992 3.94749 16.1223 3.74994 15.625 3.74994ZM4.375 3.74994C3.87772 3.74994 3.40081 3.94749 3.04918 4.29912C2.69754 4.65075 2.5 5.12766 2.5 5.62494C2.5 6.12222 2.69754 6.59914 3.04918 6.95077C3.40081 7.3024 3.87772 7.49994 4.375 7.49994C4.87228 7.49994 5.3492 7.3024 5.70083 6.95077C6.05246 6.59914 6.25 6.12222 6.25 5.62494C6.25 5.12766 6.05246 4.65075 5.70083 4.29912C5.3492 3.94749 4.87228 3.74994 4.375 3.74994ZM6.25 9.99119C6.25231 9.66119 6.38503 9.34549 6.6192 9.11296C6.85337 8.88043 7.16999 8.74993 7.5 8.74994H12.5C12.8315 8.74994 13.1495 8.88164 13.3839 9.11606C13.6183 9.35048 13.75 9.66842 13.75 9.99994V13.7499C13.7499 14.1433 13.6883 14.5343 13.5675 14.9087C13.2907 15.7571 12.7206 16.479 11.9594 16.9448C11.1982 17.4106 10.2959 17.5899 9.41454 17.4503C8.53313 17.3107 7.73035 16.8615 7.15035 16.1833C6.57035 15.5051 6.25113 14.6423 6.25 13.7499V9.99119ZM5 9.99994C5 9.54369 5.12125 9.11744 5.335 8.74994H2.5C2.16848 8.74994 1.85054 8.88164 1.61612 9.11606C1.3817 9.35048 1.25 9.66842 1.25 9.99994V13.1249C1.24983 13.6366 1.37528 14.1404 1.61534 14.5922C1.8554 15.0441 2.20272 15.43 2.6268 15.7162C3.05088 16.0025 3.53876 16.1802 4.04757 16.2338C4.55639 16.2874 5.07058 16.2152 5.545 16.0237C5.18522 15.3194 4.9984 14.5395 5 13.7487V9.99994ZM15 9.99994V13.7499C15 14.5687 14.8038 15.3412 14.455 16.0237C14.9294 16.2152 15.4436 16.2874 15.9524 16.2338C16.4612 16.1802 16.9491 16.0025 17.3732 15.7162C17.7973 15.43 18.1446 15.0441 18.3847 14.5922C18.6247 14.1404 18.7502 13.6366 18.75 13.1249V9.99994C18.75 9.66842 18.6183 9.35048 18.3839 9.11606C18.1495 8.88164 17.8315 8.74994 17.5 8.74994H14.665C14.8775 9.11744 15 9.54369 15 9.99994Z" fill="white"/>
</g>
</svg>
