<svg width="17" height="17" viewBox="0 0 17 17" fill="none" xmlns="http://www.w3.org/2000/svg">
<path id="Vector" fill-rule="evenodd" clip-rule="evenodd" d="M8.73547 0.961282C8.58544 0.811304 8.382 0.727051 8.16986 0.727051C7.95773 0.727051 7.75429 0.811304 7.60426 0.961282L2.00426 6.56134L0.404265 8.16136C0.327857 8.23516 0.266911 8.32343 0.224984 8.42104C0.183056 8.51864 0.160987 8.62362 0.160064 8.72985C0.159141 8.83607 0.179383 8.94141 0.219607 9.03973C0.259832 9.13805 0.319235 9.22737 0.394349 9.30249C0.469463 9.3776 0.558784 9.43701 0.657101 9.47723C0.755419 9.51746 0.860762 9.5377 0.966986 9.53677C1.07321 9.53585 1.17819 9.51378 1.27579 9.47185C1.37339 9.42993 1.46167 9.36898 1.53546 9.29257L1.76986 9.05817V14.327C1.76986 14.9636 2.02272 15.574 2.47281 16.0241C2.9229 16.4742 3.53335 16.7271 4.16986 16.7271H12.1699C12.8064 16.7271 13.4168 16.4742 13.8669 16.0241C14.317 15.574 14.5699 14.9636 14.5699 14.327V9.05817L14.8043 9.29257C14.9551 9.4383 15.1572 9.51894 15.367 9.51711C15.5767 9.51529 15.7774 9.43115 15.9257 9.28283C16.074 9.1345 16.1582 8.93385 16.16 8.72409C16.1618 8.51433 16.0812 8.31224 15.9355 8.16136L8.73547 0.961282Z" fill="white"/>
</svg>
