<svg width="6" height="18" viewBox="0 0 6 18" fill="none" xmlns="http://www.w3.org/2000/svg">
<path id="i" d="M1.60576 5.57788H1.45992V5.72371V14.3917C1.45992 14.8771 1.54328 15.2969 1.71732 15.6449L1.71712 15.645L1.72114 15.6521C1.90601 15.9756 2.13829 16.2471 2.41822 16.4648L2.41806 16.465L2.42541 16.4701C2.71737 16.6698 3.03288 16.8161 3.37138 16.9084L3.37295 16.9088C3.72189 16.9999 4.07159 17.0455 4.42176 17.0455H4.55376H4.69959V16.8997V8.29771C4.69959 7.37481 4.42623 6.67222 3.85208 6.22521C3.309 5.79105 2.6376 5.57788 1.84776 5.57788H1.60576ZM1.70173 0.977495C1.32105 1.34285 1.12992 1.79884 1.12992 2.33571C1.12992 2.87311 1.32142 3.32946 1.70285 3.695C2.08178 4.05814 2.53585 4.24154 3.05776 4.24154C3.57928 4.24154 4.02685 4.05832 4.39178 3.69393C4.77247 3.32857 4.96359 2.87258 4.96359 2.33571C4.96359 1.79937 4.77284 1.34375 4.3929 0.978571C4.02868 0.59959 3.58081 0.407878 3.05776 0.407878C2.53437 0.407878 2.07999 0.599744 1.70173 0.977495Z" fill="white" stroke="white" stroke-width="0.291667"/>
</svg>
