<svg width="21" height="21" viewBox="0 0 21 21" fill="none" xmlns="http://www.w3.org/2000/svg">
<g id="mdi:lightbulb-on" clip-path="url(#clip0_413_11260)">
<path id="Vector" d="M10.9334 5.72721C12.2595 5.72721 13.5312 6.254 14.4689 7.19168C15.4066 8.12936 15.9334 9.40113 15.9334 10.7272C15.9334 12.5772 14.9251 14.1939 13.4334 15.0605V16.5605C13.4334 16.7816 13.3456 16.9935 13.1893 17.1498C13.033 17.3061 12.8211 17.3939 12.6001 17.3939H9.26672C9.04571 17.3939 8.83375 17.3061 8.67747 17.1498C8.52119 16.9935 8.43339 16.7816 8.43339 16.5605V15.0605C6.94172 14.1939 5.93339 12.5772 5.93339 10.7272C5.93339 9.40113 6.46017 8.12936 7.39786 7.19168C8.33554 6.254 9.60731 5.72721 10.9334 5.72721ZM12.6001 18.2272V19.0605C12.6001 19.2816 12.5123 19.4935 12.356 19.6498C12.1997 19.8061 11.9877 19.8939 11.7667 19.8939H10.1001C9.87904 19.8939 9.66708 19.8061 9.5108 19.6498C9.35452 19.4935 9.26672 19.2816 9.26672 19.0605V18.2272H12.6001ZM17.6001 9.89388H20.1001V11.5605H17.6001V9.89388ZM1.76672 9.89388H4.26672V11.5605H1.76672V9.89388ZM11.7667 1.56055V4.06055H10.1001V1.56055H11.7667ZM5.03339 3.64388L6.80839 5.42721L5.62506 6.60221L3.85006 4.83555L5.03339 3.64388ZM15.0584 5.41888L16.8251 3.64388L18.0167 4.83555L16.2417 6.60221L15.0584 5.41888Z" fill="white"/>
</g>
<defs>
<clipPath id="clip0_413_11260">
<rect width="20" height="20" fill="white" transform="translate(0.93335 0.727051)"/>
</clipPath>
</defs>
</svg>
